Results
version=1
nRows=4
nColumns=155
inDegrees=yes
endheader
time	ground_pelvis/pelvis_tilt/value	ground_pelvis/pelvis_tilt/speed	ground_pelvis/pelvis_list/value	ground_pelvis/pelvis_list/speed	ground_pelvis/pelvis_rotation/value	ground_pelvis/pelvis_rotation/speed	ground_pelvis/pelvis_tx/value	ground_pelvis/pelvis_tx/speed	ground_pelvis/pelvis_ty/value	ground_pelvis/pelvis_ty/speed	ground_pelvis/pelvis_tz/value	ground_pelvis/pelvis_tz/speed	hip_r/hip_flexion_r/value	hip_r/hip_flexion_r/speed	hip_r/hip_adduction_r/value	hip_r/hip_adduction_r/speed	hip_r/hip_rotation_r/value	hip_r/hip_rotation_r/speed	knee_r/knee_angle_r/value	knee_r/knee_angle_r/speed	ankle_r/ankle_angle_r/value	ankle_r/ankle_angle_r/speed	subtalar_r/subtalar_angle_r/value	subtalar_r/subtalar_angle_r/speed	mtp_r/mtp_angle_r/value	mtp_r/mtp_angle_r/speed	hip_l/hip_flexion_l/value	hip_l/hip_flexion_l/speed	hip_l/hip_adduction_l/value	hip_l/hip_adduction_l/speed	hip_l/hip_rotation_l/value	hip_l/hip_rotation_l/speed	knee_l/knee_angle_l/value	knee_l/knee_angle_l/speed	ankle_l/ankle_angle_l/value	ankle_l/ankle_angle_l/speed	subtalar_l/subtalar_angle_l/value	subtalar_l/subtalar_angle_l/speed	mtp_l/mtp_angle_l/value	mtp_l/mtp_angle_l/speed	back/lumbar_extension/value	back/lumbar_extension/speed	back/lumbar_bending/value	back/lumbar_bending/speed	back/lumbar_rotation/value	back/lumbar_rotation/speed	glut_med1_r/activation	glut_med1_r/fiber_length	glut_med2_r/activation	glut_med2_r/fiber_length	glut_med3_r/activation	glut_med3_r/fiber_length	bifemlh_r/activation	bifemlh_r/fiber_length	bifemsh_r/activation	bifemsh_r/fiber_length	sar_r/activation	sar_r/fiber_length	add_mag2_r/activation	add_mag2_r/fiber_length	tfl_r/activation	tfl_r/fiber_length	pect_r/activation	pect_r/fiber_length	grac_r/activation	grac_r/fiber_length	glut_max1_r/activation	glut_max1_r/fiber_length	glut_max2_r/activation	glut_max2_r/fiber_length	glut_max3_r/activation	glut_max3_r/fiber_length	iliacus_r/activation	iliacus_r/fiber_length	psoas_r/activation	psoas_r/fiber_length	quad_fem_r/activation	quad_fem_r/fiber_length	gem_r/activation	gem_r/fiber_length	peri_r/activation	peri_r/fiber_length	rect_fem_r/activation	rect_fem_r/fiber_length	vas_int_r/activation	vas_int_r/fiber_length	med_gas_r/activation	med_gas_r/fiber_length	soleus_r/activation	soleus_r/fiber_length	tib_post_r/activation	tib_post_r/fiber_length	tib_ant_r/activation	tib_ant_r/fiber_length	glut_med1_l/activation	glut_med1_l/fiber_length	glut_med2_l/activation	glut_med2_l/fiber_length	glut_med3_l/activation	glut_med3_l/fiber_length	bifemlh_l/activation	bifemlh_l/fiber_length	bifemsh_l/activation	bifemsh_l/fiber_length	sar_l/activation	sar_l/fiber_length	add_mag2_l/activation	add_mag2_l/fiber_length	tfl_l/activation	tfl_l/fiber_length	pect_l/activation	pect_l/fiber_length	grac_l/activation	grac_l/fiber_length	glut_max1_l/activation	glut_max1_l/fiber_length	glut_max2_l/activation	glut_max2_l/fiber_length	glut_max3_l/activation	glut_max3_l/fiber_length	iliacus_l/activation	iliacus_l/fiber_length	psoas_l/activation	psoas_l/fiber_length	quad_fem_l/activation	quad_fem_l/fiber_length	gem_l/activation	gem_l/fiber_length	peri_l/activation	peri_l/fiber_length	rect_fem_l/activation	rect_fem_l/fiber_length	vas_int_l/activation	vas_int_l/fiber_length	med_gas_l/activation	med_gas_l/fiber_length	soleus_l/activation	soleus_l/fiber_length	tib_post_l/activation	tib_post_l/fiber_length	tib_ant_l/activation	tib_ant_l/fiber_length	ercspn_r/activation	ercspn_r/fiber_length	ercspn_l/activation	ercspn_l/fiber_length	intobl_r/activation	intobl_r/fiber_length	intobl_l/activation	intobl_l/fiber_length	extobl_r/activation	extobl_r/fiber_length	extobl_l/activation	extobl_l/fiber_length
      0.90522370257270545757	      4.76392427962425024646	      3.04003294600860218821	     -1.58719603980687939959	     18.64333413731239375011	      2.53286122456337148279	    -22.92095528309187102423	      0.60263545555752762173	     -0.07270899158635817094	      1.03623281466565742015	      0.16497239077137329510	      0.03856248904555409363	      0.13960952641367663229	      6.53289741551451985657	   -108.63508597385896337073	      2.69189130227917461369	     -2.39345555788477026837	     -6.24795463203999812407	     34.20660519446040837011	    -17.69884651607824110897	     80.10871321965404945331	      6.16333511996325711380	     18.97072386727288773045	     -0.06115835997583171646	     -3.78501049825206736799	     -0.37466496655316133824	     -0.13906648750943617632	     10.15484969105301793491	    119.02599598667458735690	     -6.73710148834321387312	     37.89186436298129478928	     -4.40286691718850686783	      9.17709464188336809798	    -69.00236985566984060370	     -1.41132490581886838044	     -2.67727349817638327067	     90.26471986810864223116	     -0.01156005070338539907	     -0.38686369722216207290	      0.16305842951196691804	      6.84652207960901293404	    -15.61701522041780343386	     -5.83769902732756751362	      3.70778608205604642833	    -29.28688302634678564118	     -1.83711031394170487552	     38.98234655814164995036	      0.55325310788982162702	      0.05155947542400979994	      0.39606452335011110844	      0.08613330133649119147	      0.29160829836383417302	      0.06494411754168319395	      0.11538389363003273558	      0.09973672556681063839	      0.04300747660606703271	      0.18156621569290734564	      0.02144535497880375313	      0.51161917580851179466	      0.01999999999999999695	      0.08248775897508750510	      0.08543070296531031504	      0.12025280386976712477	      0.01999999999999999695	      0.07438785661509157709	      0.01999999999999999695	      0.34399844931862327835	      0.14324743323956676266	      0.08485675743696743933	      0.15013839665669814760	      0.09335456560082458499	      0.03433836144752133723	      0.10229391191562088592	      0.01999999999999999695	      0.10903283660306858915	      0.01999999999999999695	      0.10150980464925528357	      0.01999999999999999695	      0.04137068344909677897	      0.01999999999999999695	      0.02279247925653707721	      0.06738961515652998335	      0.02111130319573497130	      0.05444991841411043337	      0.12198524043391403837	      0.18117856463469114714	      0.08992869202499993719	      0.18935791123462022978	      0.08569893607398332280	      0.09868803237686335494	      0.04939972585263274762	      0.14793066174453062267	      0.03309760143748716188	      0.07562627187768862502	      0.07444619686271604364	      0.04634541201234448904	      0.04483586238856068773	      0.01999999999999999695	      0.08089458333267922352	      0.02586566121393815351	      0.06171470166460459039	      0.03412252097759745778	      0.07957377617447899953	      0.12189943364114666502	      0.15641343346900796196	      0.09843798234486238197	      0.49228595281086295898	      0.04906322021597368105	      0.09465056539635015309	      0.02229684382798680434	      0.11995960766150721988	      0.07906365811966249713	      0.07880317657026232603	      0.05376993939118405313	      0.32481147019276229715	      0.01999999999999999695	      0.08419799954479254001	      0.01999999999999999695	      0.09583560778547264847	      0.01999999999999999695	      0.11498131030119712603	      0.33496326015678007382	      0.10616508241700187143	      0.34475899833642204007	      0.09796131151189146902	      0.11510065755931131459	      0.04966566434866372809	      0.06666533397845947340	      0.02510850080870321091	      0.02249866413494278766	      0.01882295672539927023	      0.06243462229839876615	      0.15826847284461309506	      0.01999999999999999695	      0.12921590581480552062	      0.01999999999999999695	      0.06378391435256391961	      0.01999999999999999695	      0.04325440154417619504	      0.01999999999999999695	      0.03294512347368367539	      0.16556154549340307280	      0.08048321258710590398	      0.07452401293718283193	      0.13604994569069986388	      0.27046964156324637685	      0.14011672262594740412	      0.01999999999999999695	      0.08156119309097673020	      0.11702777038102424312	      0.09728674343162027616	      0.01999999999999999695	      0.11789281502885411157	      0.03224681984009099972	      0.12227851771648429180
      0.90634729016819326475	      4.76734334495088063477	      3.04143751443994103667	     -1.56609042567544021196	     18.92690630654094974261	      2.50685123699189782442	    -23.37237194335674672629	      0.60255325612584220707	     -0.07360812478389260061	      1.03641759696984014916	      0.16392892473830547595	      0.03871884270935155303	      0.13869558750720700768	      6.41089776821626067260	   -108.51917215278788830801	      2.68897770116722334421	     -2.79853249640027268441	     -6.20917654856723810752	     34.80601387601969776142	    -17.60881844173936983111	     80.13233578687894009818	      6.18299410395410919961	     16.12041412123051742356	     -0.06722879832219581797	     -6.93033323846639159882	     -0.36916960020073502635	      9.60842766545472848350	     10.28815882434578377058	    118.27328232692394749392	     -6.69402843187604990050	     38.77984807868926253605	     -4.39245097652107663322	      9.36667978868022643724	    -69.00214501368385811020	      1.80658459258366410616	     -2.57632090168625005333	     89.44074167696558674834	     -0.01222419453313565094	     -0.77810783927787185998	      0.17136340454974757774	      7.87177974818155146153	    -15.62365198448655334573	     -5.97042094403213230436	      3.67468144694414755591	    -29.64127899052288839243	     -1.79322583674652613617	     39.12674313422766658732	      0.55394047752138753093	      0.05150527066450347191	      0.39676871894567378174	      0.08607196122487587031	      0.29197893538972397032	      0.06489489922993396664	      0.11641132297570223886	      0.09964346588728564824	      0.04562409611160379158	      0.18156829485285314041	      0.02161011164437428092	      0.51174313366709689443	      0.01999999999999999695	      0.08244115787745533164	      0.08757618470338419947	      0.12027253398468949752	      0.01999999999999999695	      0.07444267838369665602	      0.01999999999999999695	      0.34403012807675920071	      0.14115604641674212028	      0.08476531606218558335	      0.14760147859269207027	      0.09324759472799741544	      0.03411801360898684271	      0.10213871925292314358	      0.01999999999999999695	      0.10911953637405560902	      0.01999999999999999695	      0.10159727641643134799	      0.01999999999999999695	      0.04140580493440496057	      0.01999999999999999695	      0.02281694615380161495	      0.06700193945047039357	      0.02110129269529335480	      0.05389201194098273973	      0.12202305564411281003	      0.17773352337521061695	      0.08986988150099396722	      0.18693269352000754790	      0.08576590254882489328	      0.10641244144554717899	      0.04936928820511466559	      0.15613206416380961961	      0.03309267776897616142	      0.07484754385735245541	      0.07444321144450125050	      0.04592753117866045509	      0.04491192436188905929	      0.01999999999999999695	      0.08099865607442291449	      0.02653397309799270659	      0.06180472216945320785	      0.03390561556411757910	      0.07971249386494651257	      0.12000544630530950163	      0.15641505808729305738	      0.09706214185776869396	      0.49218385319038415737	      0.04933351872662797982	      0.09466149536841299283	      0.02229242901397849100	      0.11990376077155136259	      0.07975399921191758668	      0.07872258038116858314	      0.05335325338051449817	      0.32478659698093842456	      0.01999999999999999695	      0.08433811465729554313	      0.01999999999999999695	      0.09598162383883243609	      0.01999999999999999695	      0.11512489620129132128	      0.33572821579978717743	      0.10605970509245640776	      0.34513157358055984725	      0.09785885532363979011	      0.11556785401195612817	      0.04964394113569129546	      0.06598628725007155138	      0.02509572292186143527	      0.02246148348928997743	      0.01887222636201945844	      0.06506596612406166658	      0.15815213688095774991	      0.01999999999999999695	      0.12922521178913556894	      0.01999999999999999695	      0.06386476348131354952	      0.01999999999999999695	      0.04333117110419060225	      0.01999999999999999695	      0.03296645558832201478	      0.16551938951280437129	      0.08041121700451639431	      0.07363008102442485103	      0.13606889217115342161	      0.26995987739840848763	      0.14010744616984260880	      0.01999999999999999695	      0.08164704317067104922	      0.11733902172287496990	      0.09719561894480113762	      0.01999999999999999695	      0.11788458266169490885	      0.03205966848270447311	      0.12227837026534107978
      0.90697895749692936107	      4.76926184727441171418	      3.03195965099273756493	     -1.55408269867401060971	     19.09316092669995512665	      2.49201013203198362689	    -23.61683008342336265173	      0.60250660034858516401	     -0.07411432416461283257	      1.03652095069095873114	      0.16330814152121764238	      0.03880628642531994132	      0.13816930664816406971	      6.34237480245608065133	   -108.43829736916596573337	      2.68713328399233031263	     -3.04358917519605887136	     -6.18709327287451493760	     35.11053883856450852363	    -17.55820561494683218484	     80.11518613412597744627	      6.19276456172427280933	     14.86919073383084999307	     -0.07208315509753236705	     -8.39429543184776960629	     -0.36167364739814400476	     13.94743057894437043842	     10.36273901445450640324	    117.86581488127792738396	     -6.66937395358803364331	     39.28214449009863784568	     -4.38650014109564789777	      9.47499071904264056343	    -69.00043581325373054369	      3.60371780132301022803	     -2.51996292342014127641	     89.00531122716964205210	     -0.01277303332933648998	     -0.95388928115624305182	      0.17646669497463618459	      8.26174400851972201565	    -15.62744334940148327462	     -6.03262426316209854349	      3.65589334630100548651	    -29.84693111566017975633	     -1.76848861649647259853	     39.19536897512634254781	      0.55430195846637830837	      0.05147448679147884065	      0.39713374026766978808	      0.08603739263017537442	      0.29216852697280215612	      0.06486724330850089648	      0.11691718464736956806	      0.09959104384056391424	      0.04687665009478502592	      0.18157081212844095042	      0.02168853260554470808	      0.51181291885026969357	      0.01999999999999999695	      0.08241534804607426878	      0.08862078854511271087	      0.12028321616682427497	      0.01999999999999999695	      0.07447359386723335917	      0.01999999999999999695	      0.34404830746295089750	      0.14000248484564084550	      0.08471415853112525263	      0.14620340985078861262	      0.09318786943237607201	      0.03399568378546193731	      0.10205183645680912519	      0.01999999999999999695	      0.10916820357298516464	      0.01999999999999999695	      0.10164638755740044995	      0.01999999999999999695	      0.04142608741565906305	      0.01999999999999999695	      0.02283096078776207516	      0.06678700951695819288	      0.02109569664224634697	      0.05358268512086755003	      0.12204430384481425309	      0.17583903324693408998	      0.08983706962812719465	      0.18559727706237671985	      0.08580511748819172335	      0.11016018162896357158	      0.04935125938907300447	      0.16016843602700517324	      0.03308927012963943509	      0.07441623901936772478	      0.07444162672586736307	      0.04569571850259793871	      0.04495473917219573040	      0.01999999999999999695	      0.08105341619901089423	      0.02685246672720490238	      0.06186057574048475088	      0.03378519517149015244	      0.07979064270752248000	      0.11895985130563194176	      0.15641648377972658390	      0.09630144149738906201	      0.49212746789943234704	      0.04946372000516231771	      0.09466706395709845179	      0.02228997597797619315	      0.11987283808791833473	      0.08009010135566853317	      0.07867724176747133147	      0.05312215569187030834	      0.32477313609968272434	      0.01999999999999999695	      0.08441676800086216070	      0.01999999999999999695	      0.09606346570906589000	      0.01999999999999999695	      0.11520491665126884884	      0.33612176736273652322	      0.10600047809259703635	      0.34532357693921139630	      0.09780123844900950880	      0.11579804367978173418	      0.04963177151317485492	      0.06561002121739546722	      0.02508901450235812014	      0.02244082612803123544	      0.01890014558265401545	      0.06633551427120412680	      0.15808722760547022634	      0.01999999999999999695	      0.12922970337834732701	      0.01999999999999999695	      0.06391037537555672998	      0.01999999999999999695	      0.04337403960259816199	      0.01999999999999999695	      0.03297845953989893969	      0.16549607767675342251	      0.08037085852369899031	      0.07313506092652664881	      0.13607969956426205216	      0.26967911800133420597	      0.14010217839343694357	      0.01999999999999999695	      0.08169561879645337310	      0.11749249727349270200	      0.09714389171930072620	      0.01999999999999999695	      0.11788007264237163052	      0.03195575411867795923	      0.12227817874451456237
      0.90761062482566545739	      4.77117163580769965137	      3.01341597526712634547	     -1.54196780846049641411	     19.26655902506883322189	      2.47701808589183025688	    -23.84943212591311478832	      0.60245962474914627194	     -0.07462088026294147469	      1.03662390325885533926	      0.16265782213193993866	      0.03889339221657051732	      0.13762396874189275486	      6.27390662372704888128	   -108.34536802032462787793	      2.68512891224713845517	     -3.30567156803332906634	     -6.16482702621544298438	     35.38419131505605008670	    -17.50761145122701023524	     80.07292384874357082936	      6.20185564643960773878	     13.98097002407908640009	     -0.07776949982583014620	     -9.55502226330111348318	     -0.35180118483744837743	     17.09448735171266875454	     10.43706634168142599606	    117.47352275293083323504	     -6.64440006015236495074	     39.79211951125554946884	     -4.38047802726460755451	      9.59397907927498572178	    -68.99759474962449701252	      5.38990424936122547450	     -2.46387215320143182495	     88.59517168262412667445	     -0.01342068764088409812	     -1.09003250093746473226	      0.18176757337924881464	      8.49467043370794172574	    -15.63127063448750142527	     -6.08362031715652662456	      3.63697358886000676748	    -30.05829799486216913351	     -1.74371237547192969863	     39.24936122111554936964	      0.55464655335502144329	      0.05144348641711921077	      0.39747814594846564429	      0.08600277054893162854	      0.29234572271155562229	      0.06483961277043850946	      0.11737738436781959550	      0.09953868467769043382	      0.04799438371083064592	      0.18157446458095058417	      0.02175816755672069572	      0.51188272586426419863	      0.01999999999999999695	      0.08238981746440632303	      0.08956394585594888713	      0.12029373548002944561	      0.01999999999999999695	      0.07450458129321717304	      0.01999999999999999695	      0.34406674862480068899	      0.13886454280359719626	      0.08466314674560390663	      0.14482512767560906664	      0.09312838959263458616	      0.03387445394867631687	      0.10196522124372268958	      0.01999999999999999695	      0.10921681393552665207	      0.01999999999999999695	      0.10169544703725764967	      0.01999999999999999695	      0.04144670759119614689	      0.01999999999999999695	      0.02284515083541590122	      0.06657422080106659146	      0.02109012501353722813	      0.05327642408688310072	      0.12206553088925896355	      0.17397415264075938302	      0.08980440591009880569	      0.18428154061982648937	      0.08584517595909876841	      0.11354110067617816104	      0.04933277457527532328	      0.16384576780667001183	      0.03308547221189955811	      0.07398952911748797601	      0.07444014177711588687	      0.04546611758309425377	      0.04499760718224275063	      0.01999999999999999695	      0.08111161796914903577	      0.02713558092486487508	      0.06191160717980017519	      0.03366585640600011642	      0.07986891587129339720	      0.11792777195998070672	      0.15641830135738316043	      0.09554976769017416161	      0.49207178276329566202	      0.04958032002722512904	      0.09467225494092193494	      0.02228754353586416201	      0.11984223899701787475	      0.08039341906999737664	      0.07863187872661651923	      0.05289330009064984600	      0.32476006062934109631	      0.01999999999999999695	      0.08449537033022884447	      0.01999999999999999695	      0.09614515168183827842	      0.01999999999999999695	      0.11528443300581338316	      0.33649111499436124006	      0.10594129294151946596	      0.34550397892056683435	      0.09774363073000917612	      0.11600752867043157002	      0.04961962415416273919	      0.06523764370713036609	      0.02508262023683564129	      0.02242034330763064201	      0.01892822485311414574	      0.06747465763650437043	      0.15802272349718252120	      0.01999999999999999695	      0.12923367334029572939	      0.01999999999999999695	      0.06395610463290528347	      0.01999999999999999695	      0.04341670659711852759	      0.01999999999999999695	      0.03299046501001819121	      0.16547304074344709734	      0.08033059240071764584	      0.07264537763994381725	      0.13609061641238581752	      0.26940246832752862138	      0.14009686777807328628	      0.01999999999999999695	      0.08174442571490647680	      0.11763224050576538693	      0.09709182686108443205	      0.01999999999999999695	      0.11787564247792299554	      0.03185276419724560742	      0.12227790042739934695
